<svg width="1461" height="749" viewBox="0 0 1461 749" fill="none" xmlns="http://www.w3.org/2000/svg">
<path fill-rule="evenodd" clip-rule="evenodd" d="M578.339 246.333C625.79 293.143 682.761 345.035 677.021 411.441C671.252 478.183 605.05 518.284 551.369 558.359C501.042 595.93 447.122 636.878 384.736 629.644C322.969 622.482 274.217 574.858 240.899 522.357C211.419 475.904 221.317 420.241 217.034 365.39C211.022 288.383 154.405 194.858 211.248 142.56C267.653 90.6655 357.135 147.785 430.889 168.635C486.466 184.346 537.224 205.773 578.339 246.333Z" stroke="#76C4A1" stroke-width="10"/>
<path fill-rule="evenodd" clip-rule="evenodd" d="M538.271 294.415C585.722 341.225 642.692 393.117 636.953 459.524C631.184 526.265 564.982 566.366 511.301 606.441C460.974 644.012 407.053 684.96 344.667 677.726C282.9 670.564 234.149 622.94 200.831 570.439C171.351 523.986 181.248 468.323 176.966 413.472C170.954 336.465 114.337 242.94 171.18 190.642C227.584 138.748 317.066 195.867 390.821 216.717C446.397 232.428 497.155 253.855 538.271 294.415Z" stroke="#F7C14A" stroke-width="10"/>
<path fill-rule="evenodd" clip-rule="evenodd" d="M1390.29 503.733C1393.42 431.542 1355.79 367.653 1311.23 310.712C1265.56 252.348 1212.18 197.651 1139.45 183.19C1060.25 167.444 974.173 180.456 911.452 231.229C848.705 282.024 818.682 363.452 817.126 444.114C815.688 518.622 848.573 590.708 903.545 641.118C951.996 685.547 1021.62 681.055 1086.6 691.223C1157.79 702.364 1232.97 740.094 1294.25 702.26C1359.32 662.086 1386.98 580.07 1390.29 503.733Z" stroke="#76C4A1" stroke-width="10"/>
<path fill-rule="evenodd" clip-rule="evenodd" d="M1429.21 470.533C1432.34 398.343 1394.71 334.454 1350.15 277.512C1304.48 219.149 1251.11 164.452 1178.37 149.991C1099.17 134.244 1013.1 147.257 950.376 198.03C887.629 248.825 857.606 330.253 856.049 410.915C854.612 485.422 887.497 557.509 942.469 607.919C990.919 652.348 1060.55 647.856 1125.53 658.024C1196.72 669.165 1271.89 706.895 1333.18 669.06C1398.25 628.887 1425.9 546.871 1429.21 470.533Z" stroke="#F7C14A" stroke-width="10"/>
</svg>
