<svg width="46" height="62" viewBox="0 0 46 62" fill="none" xmlns="http://www.w3.org/2000/svg">
<path fill-rule="evenodd" clip-rule="evenodd" d="M2.35078 31.7787C-1.60075 23.071 -0.627333 14.4033 5.70177 7.54458C12.0309 0.685872 17.954 0 23.1529 0C28.3518 0 35.1463 1.97591 40.3319 7.54458C46.3605 14.0186 47.6036 22.6337 43.9485 31.7787C40.2853 40.9439 32.0174 52.9368 26.0181 60.6637C24.592 62.5005 21.8003 62.4293 20.4479 60.5391C15.4147 53.504 10.859 46.406 10.3286 45.5766C10.2915 45.5187 10.2583 45.47 10.2183 45.4139C9.67515 44.6508 5.47934 38.6729 2.35078 31.7787ZM23 31.595C28.3589 31.595 32.7031 27.3514 32.7031 22.1165C32.7031 16.8817 28.3589 12.638 23 12.638C17.6411 12.638 13.2969 16.8817 13.2969 22.1165C13.2969 27.3514 17.6411 31.595 23 31.595Z" fill="#76C4A1"/>
</svg>
