<svg width="57" height="57" viewBox="0 0 57 57" fill="none" xmlns="http://www.w3.org/2000/svg">
<path d="M22.9451 9.42675L15.6938 2.15627C14.3988 0.857851 12.7349 -0.253419 10.9271 0.0506274C8.48555 0.461241 6.83382 2.23417 5.18209 3.65369C2.97062 5.55426 0.369863 8.8725 0.053938 11.4066C-0.261987 13.9407 0.872772 17.7872 1.82055 20.6381C2.76832 23.4889 4.3617 27.6496 11.5006 36.5968C14.028 39.7644 18.0773 44.4773 26.665 50.2176C30.4561 52.7516 34.9483 54.9927 38.5193 55.9554C43.0586 57.179 45.9184 57.4282 48.4458 56.1611C50.9732 54.8941 54.7823 50.5343 56.3619 47.6835C56.9174 46.681 57.0451 45.8339 56.9873 45.1148C56.867 43.6203 55.8248 42.3691 54.783 41.2914C52.0322 38.4456 48.132 34.4718 46.8841 33.4292C44.9886 31.8454 42.4612 32.4789 41.1975 33.4292C39.9338 34.3795 38.8019 36.3909 37.7223 37.5471C36.2759 39.0962 34.2472 39.7644 32.3516 39.4477C30.4561 39.1309 26.5833 37.3503 22.8739 33.4292C19.692 30.0657 18.6626 27.8472 17.9148 25.755C17.6324 24.9647 17.4433 24.1357 17.4729 23.297C17.5185 22.0035 17.8489 20.4964 19.0828 19.175C20.5312 17.6238 23.5057 16.6409 24.4535 15.0571C24.8034 14.4723 24.8991 13.7362 24.8689 13.0272C24.809 11.6205 23.939 10.4233 22.9451 9.42675Z" fill="#76C4A1"/>
</svg>
