<svg width="59" height="58" viewBox="0 0 59 58" fill="none" xmlns="http://www.w3.org/2000/svg">
<path fill-rule="evenodd" clip-rule="evenodd" d="M59 29C59 45.0163 45.7924 58 29.5 58C13.2076 58 0 45.0163 0 29C0 12.9837 13.2076 0 29.5 0C45.7924 0 59 12.9837 59 29ZM30.5316 21.3938C27.6578 22.577 21.9346 25.0158 13.3376 28.6861C11.9621 29.2415 11.2252 29.7727 11.1515 30.3039C11.0428 31.2022 12.1865 31.5511 13.7293 32.0218C13.9284 32.0825 14.1342 32.1453 14.3447 32.2115C15.8676 32.6944 17.8818 33.2498 18.938 33.2739C19.8959 33.2981 20.9521 32.9117 22.1311 32.1149C30.1632 26.7785 34.2898 24.0741 34.5599 24.0258C34.7565 23.9775 35.0021 23.9292 35.174 24.0741C35.346 24.219 35.346 24.5087 35.3214 24.5812C35.2042 25.0612 30.4124 29.4343 28.2318 31.4243C27.6701 31.937 27.2817 32.2915 27.1911 32.3805C26.9607 32.6136 26.7261 32.8344 26.5006 33.0466C25.0907 34.3733 24.0326 35.3688 26.5525 36.9925C27.698 37.736 28.622 38.3557 29.5318 38.9659C30.6315 39.7034 31.7105 40.4272 33.1353 41.3389C33.471 41.5556 33.7923 41.7803 34.1058 41.9996C35.3294 42.8553 36.4335 43.6274 37.8022 43.5121C38.5883 43.4396 39.3988 42.7152 39.8164 40.542C40.7989 35.423 42.7148 24.2914 43.157 19.7036C43.2061 19.3172 43.157 18.8102 43.1078 18.5687C43.0587 18.3272 42.985 18.0133 42.6903 17.7719C42.3218 17.4821 41.7814 17.4338 41.5358 17.4338C40.4305 17.458 38.7111 18.0375 30.5316 21.3938Z" fill="#76C4A1"/>
</svg>
