<svg width="57" height="42" viewBox="0 0 57 42" fill="none" xmlns="http://www.w3.org/2000/svg">
<path d="M1.09338 1.7437C0.781693 2.12255 0.910719 2.67151 1.31023 2.95518L27.1215 21.2824C27.9478 21.8691 29.0522 21.8691 29.8785 21.2824L55.6898 2.95518C56.0893 2.67151 56.2183 2.12255 55.9066 1.7437C55.0304 0.67867 53.7055 0 52.2229 0H4.77714C3.29449 0 1.9696 0.67867 1.09338 1.7437Z" fill="#76C4A1"/>
<path d="M57 9.75632C57 8.97771 56.126 8.52297 55.4932 8.97232L32.6354 25.2024C30.1567 26.9624 26.8433 26.9624 24.3646 25.2024L1.50682 8.97232C0.873975 8.52297 0 8.97771 0 9.75632V37.2C0 39.851 2.1388 42 4.77714 42H52.2229C54.8612 42 57 39.851 57 37.2V9.75632Z" fill="#76C4A1"/>
</svg>
